#N canvas 208 141 965 579 10;
#X obj 76 114 bng 15 250 50 0 empty empty empty 17 7 0 10 -262144 -1
-1;
#X obj 76 15 adc~;
#X obj 266 -34 scope~ 130 130 256 3 128 -1 1 0 0 0 0 102 255 51 135
135 135 0;
#X obj 76 50 *~ 50;
#X obj 118 50 *~ 50;
#N canvas 0 22 450 278 (subpatch) 0;
#X array array1 101723 float 2;
#X coords 0 1 101723 -1 200 140 1;
#X restore 241 323 graph;
#X obj 283 247 soundfiler;
#X obj 75 254 phasor~;
#X obj 73 447 dac~;
#X obj 74 334 tabread4~ array1;
#X obj 124 182 expr 44100 / $f1;
#X obj 76 84 vinylcontrol~ traktor_a 5;
#X text 122 164 calc playback speed from sample rate;
#X text 138 386 fader cut;
#N canvas 0 22 450 278 (subpatch) 0;
#X array array2 147919 float 2;
#X coords 0 1 147919 -1 200 140 1 0 0;
#X restore 691 337 graph;
#X obj 779 268 soundfiler;
#X obj 525 268 phasor~;
#X obj 523 461 dac~;
#X obj 525 312 *~;
#X obj 574 196 expr 44100 / $f1;
#X obj 525 229 *;
#X text 572 178 calc playback speed from sample rate;
#X text 588 400 fader cut;
#X obj 458 102 tgl 15 0 empty empty empty 17 7 0 10 -262144 -1 -1 0
1;
#X obj 205 131 demux 1 2;
#X obj 234 106 nbx 5 14 -1e+37 1e+37 0 0 empty empty empty 0 -8 0 10
-262144 -1 -1 0 256;
#X msg 781 228 read -resize wavs/problems.wav array2;
#X obj 143 224 tgl 15 0 empty empty empty 17 7 0 10 -262144 -1 -1 0
1;
#X obj 582 226 tgl 15 0 empty empty empty 17 7 0 10 -262144 -1 -1 0
1;
#X obj 143 247 sk-trigger;
#X obj 579 246 sk-trigger;
#X obj 524 348 tabread4~ array2;
#X obj 75 215 *;
#X obj 75 298 *~;
#X obj 73 412 declick;
#X msg 285 207 read -resize wavs/breakdc.wav array1;
#X obj 619 62 hid;
#X msg 619 30 open 1;
#X obj 584 39 tgl 15 0 empty empty empty 17 7 0 10 -262144 -1 -1 0
1;
#X obj 544 88 print;
#X obj 601 123 route key_20;
#X obj 606 97 route key;
#X obj 523 426 declick;
#X connect 1 0 3 0;
#X connect 1 1 4 0;
#X connect 3 0 11 0;
#X connect 4 0 11 1;
#X connect 4 0 2 0;
#X connect 6 0 10 0;
#X connect 6 0 33 1;
#X connect 7 0 33 0;
#X connect 9 0 34 0;
#X connect 10 0 32 1;
#X connect 11 0 0 0;
#X connect 11 1 24 0;
#X connect 11 1 32 0;
#X connect 15 0 19 0;
#X connect 15 0 18 1;
#X connect 16 0 18 0;
#X connect 18 0 31 0;
#X connect 19 0 20 1;
#X connect 20 0 16 0;
#X connect 23 0 24 1;
#X connect 24 0 32 0;
#X connect 24 1 20 0;
#X connect 25 0 24 0;
#X connect 26 0 15 0;
#X connect 27 0 29 0;
#X connect 28 0 30 0;
#X connect 29 0 7 1;
#X connect 29 1 34 1;
#X connect 29 2 23 0;
#X connect 30 0 16 1;
#X connect 30 1 42 1;
#X connect 31 0 42 0;
#X connect 32 0 7 0;
#X connect 33 0 9 0;
#X connect 34 0 8 0;
#X connect 34 0 8 1;
#X connect 35 0 6 0;
#X connect 36 0 39 0;
#X connect 36 0 41 0;
#X connect 37 0 36 0;
#X connect 38 0 36 0;
#X connect 40 0 27 0;
#X connect 41 0 40 0;
#X connect 42 0 17 0;
#X connect 42 0 17 1;
