#N canvas 0 22 450 300 10;
#X obj 93 224 outlet pos;
#X obj 213 224 outlet cut;
#X msg 93 171 0.25;
#X obj 213 170 tgl 15 0 empty empty empty 17 7 0 10 -262144 -1 -1 0
1;
#X msg 135 171 0.5;
#X msg 168 171 0.75;
#X obj 93 78 notein;
#X obj 93 109 spigot;
#X obj 213 140 sel 38;
#X obj 93 140 sel 36 40 43 41;
#X text 229 86 cue: 36 \, 40 \, 43;
#X text 228 103 fader 38 \, hamster switch 41;
#X obj 93 194 nop;
#X obj 186 56 inlet;
#X connect 2 0 12 0;
#X connect 3 0 1 0;
#X connect 4 0 12 0;
#X connect 5 0 12 0;
#X connect 6 0 7 0;
#X connect 6 0 8 0;
#X connect 6 1 7 1;
#X connect 7 0 9 0;
#X connect 8 0 3 0;
#X connect 9 0 2 0;
#X connect 9 1 4 0;
#X connect 9 2 5 0;
#X connect 9 3 3 0;
#X connect 12 0 0 0;
#X connect 13 0 3 0;
