#N canvas 519 111 616 543 10;
#X obj 76 114 bng 15 250 50 0 empty empty empty 17 7 0 10 -262144 -1
-1;
#X obj 76 15 adc~;
#X obj 286 32 scope~ 130 130 256 3 128 -1 1 0 0 0 0 102 255 51 135
135 135 0;
#X obj 76 50 *~ 50;
#X obj 118 50 *~ 50;
#N canvas 0 22 450 278 (subpatch) 0;
#X array array1 102973 float 2;
#X coords 0 1 102973 -1 200 140 1;
#X restore 241 323 graph;
#X obj 329 254 soundfiler;
#X msg 331 214 read -resize break.wav array1;
#X obj 75 254 phasor~;
#X obj 73 447 dac~;
#X obj 75 298 *~;
#X obj 74 334 tabread4~ array1;
#X obj 124 182 expr 44100 / $f1;
#X obj 75 215 *;
#X obj 76 84 vinylcontrol~ traktor_a 5;
#X text 122 164 calc playback speed from sample rate;
#X obj 73 412 *~;
#X text 138 386 fader cut;
#N canvas 895 399 450 300 trigger 0;
#X obj 66 169 outlet pos;
#X obj 186 169 outlet cut;
#X msg 66 116 0.25;
#X obj 186 115 tgl 15 0 empty empty empty 17 7 0 10 -262144 -1 -1 0
1;
#X msg 108 116 0.5;
#X msg 141 116 0.75;
#X obj 66 23 notein;
#X obj 66 54 spigot;
#X obj 186 85 sel 38;
#X obj 66 85 sel 36 40 43 41;
#X text 202 31 cue: 36 \, 40 \, 43;
#X text 201 48 fader 38 \, hamster switch 41;
#X obj 66 139 nop;
#X connect 2 0 12 0;
#X connect 3 0 1 0;
#X connect 4 0 12 0;
#X connect 5 0 12 0;
#X connect 6 0 7 0;
#X connect 6 0 8 0;
#X connect 6 1 7 1;
#X connect 7 0 9 0;
#X connect 8 0 3 0;
#X connect 9 0 2 0;
#X connect 9 1 4 0;
#X connect 9 2 5 0;
#X connect 9 3 3 0;
#X connect 12 0 0 0;
#X restore 124 213 pd trigger;
#X connect 1 0 3 0;
#X connect 1 1 4 0;
#X connect 3 0 14 0;
#X connect 4 0 14 1;
#X connect 4 0 2 0;
#X connect 6 0 12 0;
#X connect 6 0 10 1;
#X connect 7 0 6 0;
#X connect 8 0 10 0;
#X connect 10 0 11 0;
#X connect 11 0 16 0;
#X connect 12 0 13 1;
#X connect 13 0 8 0;
#X connect 14 0 0 0;
#X connect 14 1 13 0;
#X connect 16 0 9 0;
#X connect 16 0 9 1;
#X connect 18 0 8 1;
#X connect 18 1 16 1;
