#N canvas 426 116 450 300 10;
#X obj 104 35 adc~ 1;
#N canvas 531 198 372 200 delwriter~ 0;
#X obj 35 71 inlet~;
#X obj 36 129 outlet~;
#X obj 35 93 delwrite~ rt_stretch 8000;
#X connect 0 0 2 0;
#X restore 104 66 pd delwriter~;
#N canvas 549 251 334 235 delreader~ 0;
#X obj 46 39 inlet~;
#X obj 140 37 inlet;
#X obj 140 81 line~;
#X obj 140 103 vd~ rt_stretch;
#X obj 140 125 outlet~;
#X obj 183 37 inlet;
#X obj 140 59 pack;
#X msg 229 39 0;
#X obj 229 18 inlet;
#X connect 1 0 6 0;
#X connect 2 0 3 0;
#X connect 3 0 4 0;
#X connect 5 0 6 1;
#X connect 6 0 2 0;
#X connect 7 0 2 0;
#X connect 8 0 7 0;
#X restore 104 188 pd delreader~;
#X obj 104 228 dac~;
#X floatatom 129 105 5 0 0 0 - - -;
#X floatatom 154 130 6 0 0 0 - - -;
#X text 196 130 ramp time(set this first);
#X obj 179 167 bng 15 250 50 0 empty empty empty 17 7 0 10 -262144
-1 -1;
#X text 197 166 reset;
#X text 163 104 ramp range(up to 8000);
#X connect 0 0 1 0;
#X connect 1 0 2 0;
#X connect 2 0 3 0;
#X connect 2 0 3 1;
#X connect 4 0 2 1;
#X connect 5 0 2 2;
#X connect 7 0 2 3;
