#N canvas 0 0 604 528 10;
#X obj 19 190 inlet~;
#X floatatom 232 103 5 50 1000 1 ms #0-winsize-r #0-winsize;
#X obj 19 217 delwrite~ \$0-delay 8000;
#X obj 43 315 phasor~;
#X obj 43 294 expr 1000/$f1;
#X obj 43 273 r \$0-winsize;
#X obj 136 331 +~ 0.5;
#X obj 136 354 wrap~;
#N canvas 0 0 310 264 readFromDel 0;
#X obj 77 76 samphold~;
#X obj 171 168 cos~;
#X obj 171 123 *~ 0.5;
#X obj 76 184 *~;
#X obj 171 145 -~ 0.25;
#X obj 170 60 inlet~;
#X obj 76 211 outlet~;
#X obj 77 29 r~ \$0-position;
#X obj 77 128 vd~ \$0-delay;
#X connect 0 0 8 0;
#X connect 1 0 3 1;
#X connect 2 0 4 0;
#X connect 3 0 6 0;
#X connect 4 0 1 0;
#X connect 5 0 0 1;
#X connect 5 0 2 0;
#X connect 7 0 0 0;
#X connect 8 0 3 0;
#X restore 42 377 pd readFromDel;
#N canvas 0 0 310 264 readFromDel 0;
#X obj 77 76 samphold~;
#X obj 171 168 cos~;
#X obj 171 123 *~ 0.5;
#X obj 76 184 *~;
#X obj 171 145 -~ 0.25;
#X obj 170 60 inlet~;
#X obj 76 211 outlet~;
#X obj 77 29 r~ \$0-position;
#X obj 77 128 vd~ \$0-delay;
#X connect 0 0 8 0;
#X connect 1 0 3 1;
#X connect 2 0 4 0;
#X connect 3 0 6 0;
#X connect 4 0 1 0;
#X connect 5 0 0 1;
#X connect 5 0 2 0;
#X connect 7 0 0 0;
#X connect 8 0 3 0;
#X restore 135 377 pd readFromDel;
#X obj 101 423 outlet~;
#X obj 438 67 vsl 15 75 0.5 2 1 1 empty empty speed 0 -9 0 10 -262144
-1 -1 3700 1;
#X obj 438 176 expr 1-$f1;
#X floatatom 464 145 5 0 0 0 - - -;
#X msg 386 48 1;
#X obj 438 211 * 0.125;
#X text 492 212 1000/max_del;
#X obj 438 246 phasor~;
#X obj 386 27 loadbang;
#X obj 438 271 *~ 8000;
#X text 489 271 max_del;
#X obj 438 302 s~ \$0-position;
#X text 227 82 winsize;
#X obj 331 73 s \$0-winsize-r;
#X msg 331 44 100;
#X connect 0 0 2 0;
#X connect 3 0 6 0;
#X connect 3 0 8 0;
#X connect 4 0 3 0;
#X connect 5 0 4 0;
#X connect 6 0 7 0;
#X connect 7 0 9 0;
#X connect 8 0 10 0;
#X connect 9 0 10 0;
#X connect 11 0 12 0;
#X connect 11 0 13 0;
#X connect 12 0 15 0;
#X connect 14 0 11 0;
#X connect 15 0 17 0;
#X connect 17 0 19 0;
#X connect 18 0 14 0;
#X connect 18 0 24 0;
#X connect 19 0 21 0;
#X connect 24 0 23 0;
